<svg xmlns="http://www.w3.org/2000/svg" xmlns:xlink="http://www.w3.org/1999/xlink" width="146" height="146" viewBox="0 0 146 146">
  <defs>
    <filter id="Ret창ngulo_134" x="0" y="0" width="146" height="146" filterUnits="userSpaceOnUse">
      <feOffset dy="3" input="SourceAlpha"/>
      <feGaussianBlur stdDeviation="3" result="blur"/>
      <feFlood flood-opacity="0.161"/>
      <feComposite operator="in" in2="blur"/>
      <feComposite in="SourceGraphic"/>
    </filter>
  </defs>
  <g id="Grupo_10" data-name="Grupo 10" transform="translate(-178 -76)">
    <g transform="matrix(1, 0, 0, 1, 178, 76)" filter="url(#Ret창ngulo_134)">
      <rect id="Ret창ngulo_134-2" data-name="Ret창ngulo 134" width="128" height="128" rx="8" transform="translate(9 6)" fill="#1a87ff"/>
    </g>
    <path id="file-image-solid" d="M48,15.243V16H32V0h.757a3,3,0,0,1,2.121.879L47.121,13.121A3,3,0,0,1,48,15.243ZM31,20a3.009,3.009,0,0,1-3-3V0H3A3,3,0,0,0,0,3V61a3,3,0,0,0,3,3H45a3,3,0,0,0,3-3V20ZM14.068,22a6,6,0,1,1-6,6A6,6,0,0,1,14.068,22Zm26,30h-32l.061-6.061L13.068,41a1.429,1.429,0,0,1,2.061.061L20.068,46,33.007,33.061a1.5,1.5,0,0,1,2.121,0L40.068,38V52Z" transform="translate(227 114)" fill="#fff"/>
  </g>
</svg>
