<svg xmlns="http://www.w3.org/2000/svg" width="128" height="128" viewBox="0 0 128 128">
  <g id="Grupo_23" data-name="Grupo 23" transform="translate(-124 -60)">
    <rect id="Retângulo_167" data-name="Retângulo 167" width="128" height="128" transform="translate(124 60)" fill="#fff"/>
    <path id="file-image-solid" d="M59.076,18.76v.932H39.384V0h.932a3.692,3.692,0,0,1,2.611,1.081L57.995,16.149A3.693,3.693,0,0,1,59.076,18.76ZM38.153,24.615a3.7,3.7,0,0,1-3.692-3.692V0H3.692A3.692,3.692,0,0,0,0,3.692V75.076a3.692,3.692,0,0,0,3.692,3.692H55.384a3.692,3.692,0,0,0,3.692-3.692V24.615ZM17.314,27.077A7.385,7.385,0,1,1,9.93,34.461,7.384,7.384,0,0,1,17.314,27.077ZM49.314,64H9.93L10,56.54l6.079-6.079a1.759,1.759,0,0,1,2.536.075L24.7,56.615,40.624,40.689a1.846,1.846,0,0,1,2.611,0l6.079,6.079V64Z" transform="translate(158 85)" fill="rgba(26,135,255,0.75)"/>
  </g>
</svg>
