<svg xmlns="http://www.w3.org/2000/svg" width="192" height="256" viewBox="0 0 192 256">
  <path id="file-image-solid" d="M192,60.97V64H128V0h3.029a12,12,0,0,1,8.485,3.514l48.971,48.971A12,12,0,0,1,192,60.97ZM124,80a12.035,12.035,0,0,1-12-12V0H12A12,12,0,0,0,0,12V244a12,12,0,0,0,12,12H180a12,12,0,0,0,12-12V80ZM56.272,88a24,24,0,1,1-24,24A24,24,0,0,1,56.272,88Zm104,120h-128l.243-24.242L52.272,164a5.717,5.717,0,0,1,8.242.243L80.272,184l51.757-51.758a6,6,0,0,1,8.486,0L160.273,152v56Z" fill="rgba(26,135,255,0.75)"/>
</svg>
