<svg xmlns="http://www.w3.org/2000/svg" xmlns:xlink="http://www.w3.org/1999/xlink" width="201.712" height="304.856" viewBox="0 0 201.712 304.856">
  <defs>
    <filter id="Retângulo_154" x="26.856" y="0" width="148" height="188" filterUnits="userSpaceOnUse">
      <feOffset dy="3" input="SourceAlpha"/>
      <feGaussianBlur stdDeviation="3" result="blur"/>
      <feFlood flood-opacity="0.161"/>
      <feComposite operator="in" in2="blur"/>
      <feComposite in="SourceGraphic"/>
    </filter>
    <filter id="Retângulo_153" x="0" y="103.144" width="201.712" height="201.712" filterUnits="userSpaceOnUse">
      <feOffset dy="3" input="SourceAlpha"/>
      <feGaussianBlur stdDeviation="3" result="blur-2"/>
      <feFlood flood-opacity="0.161"/>
      <feComposite operator="in" in2="blur-2"/>
      <feComposite in="SourceGraphic"/>
    </filter>
  </defs>
  <g id="Grupo_16" data-name="Grupo 16" transform="translate(-87.144 -148)">
    <g transform="matrix(1, 0, 0, 1, 87.14, 148)" filter="url(#Retângulo_154)">
      <rect id="Retângulo_154-2" data-name="Retângulo 154" width="130" height="170" rx="8" transform="translate(35.86 6)" fill="#fff"/>
    </g>
    <g transform="matrix(1, 0, 0, 1, 87.14, 148)" filter="url(#Retângulo_153)">
      <rect id="Retângulo_153-2" data-name="Retângulo 153" width="150" height="150" rx="8" transform="matrix(0.97, 0.26, -0.26, 0.97, 47.82, 109.14)" fill="#fff"/>
    </g>
    <g id="Elipse_3" data-name="Elipse 3" transform="translate(125 337)" fill="none" stroke="#d1d1d1" stroke-width="1">
      <circle cx="12" cy="12" r="12" stroke="none"/>
      <circle cx="12" cy="12" r="11.5" fill="none"/>
    </g>
    <path id="apple-alt-solid" d="M39.145,14.4a10.935,10.935,0,0,1,7.134,4.687,20.917,20.917,0,0,1,3.344,8.705,27.757,27.757,0,0,1-.112,9.6,30.158,30.158,0,0,1-5.35,13.281q-4.795,6.474-12.039,6.473a8.464,8.464,0,0,1-3.9-1.116,6.3,6.3,0,0,0-6.466,0,8.464,8.464,0,0,1-3.9,1.116q-7.245,0-12.039-6.473A30.158,30.158,0,0,1,.462,37.388a27.757,27.757,0,0,1-.112-9.6,20.917,20.917,0,0,1,3.344-8.705A10.934,10.934,0,0,1,10.828,14.4a18.622,18.622,0,0,1,7.357.781,30.9,30.9,0,0,1,6.8,2.679,30.9,30.9,0,0,1,6.8-2.679A18.634,18.634,0,0,1,39.145,14.4ZM33.013,9.821a9.437,9.437,0,0,1-4.125,2.121,13.024,13.024,0,0,1-3.9.558l-1.672-.112a14.321,14.321,0,0,1,0-3.571,9.956,9.956,0,0,1,2.564-6.138A9.437,9.437,0,0,1,30,.558,13.024,13.024,0,0,1,33.905,0l1.672.112.112,1.674a13.09,13.09,0,0,1-.557,3.906,9.434,9.434,0,0,1-2.118,4.129Z" transform="translate(163.013 195)" fill="#1a87ff"/>
    <line id="Linha_36" data-name="Linha 36" x2="106" transform="translate(135.5 178.5)" fill="none" stroke="#d1d1d1" stroke-width="1"/>
    <text id="Uma_Maçã" data-name="Uma Maçã" transform="translate(161 170)" fill="#1a87ff" font-size="10" font-family="Montserrat-Regular, Montserrat"><tspan x="0" y="0">Uma Maçã</tspan></text>
  </g>
</svg>
