<svg xmlns="http://www.w3.org/2000/svg" width="580" height="796.353" viewBox="0 0 580 796.353">
  <g id="Grupo_19" data-name="Grupo 19" transform="translate(84 55)">
    <g id="Grupo_17" data-name="Grupo 17">
      <path id="tree-solid" d="M197.043,197.131,155.433,150h15.953a11.835,11.835,0,0,0,10.823-6.8,11.482,11.482,0,0,0-1.708-12.526l-40.694-47.34h15.047a11.8,11.8,0,0,0,10.865-7.089A11.589,11.589,0,0,0,163.511,63.7L106.078,2.512a8.579,8.579,0,0,0-12.146,0L36.493,63.7a11.6,11.6,0,0,0-2.208,12.542,11.809,11.809,0,0,0,10.87,7.089H60.2l-40.7,47.35A11.5,11.5,0,0,0,17.8,143.2,11.833,11.833,0,0,0,28.623,150H44.576L2.966,197.131a11.514,11.514,0,0,0-1.854,12.636,12.08,12.08,0,0,0,10.943,6.9H83.337V229.4L67.561,254.612a8.336,8.336,0,0,0,7.453,12.063h49.98a8.336,8.336,0,0,0,7.453-12.063L116.672,229.4V216.668h71.283a12.08,12.08,0,0,0,10.943-6.9A11.514,11.514,0,0,0,197.043,197.131Z" transform="translate(-84.004 422.007)" fill="#006be0"/>
      <path id="tree-solid-2" data-name="tree-solid" d="M118.228,118.276,93.261,90h9.572a7.1,7.1,0,0,0,6.494-4.081A6.889,6.889,0,0,0,108.3,78.4L83.886,50h9.028a7.081,7.081,0,0,0,6.519-4.253,6.953,6.953,0,0,0-1.325-7.525L63.648,1.5a5.147,5.147,0,0,0-7.288,0L21.9,38.218a6.959,6.959,0,0,0-1.325,7.525A7.085,7.085,0,0,0,27.094,50h9.028L11.7,78.406a6.9,6.9,0,0,0-1.022,7.513A7.1,7.1,0,0,0,17.175,90h9.572L1.781,118.276a6.908,6.908,0,0,0-1.113,7.581A7.248,7.248,0,0,0,7.234,130H50v7.641l-9.466,15.125A5,5,0,0,0,45.01,160H75a5,5,0,0,0,4.472-7.238L70,137.639V130h42.77a7.248,7.248,0,0,0,6.566-4.141A6.908,6.908,0,0,0,118.228,118.276Z" transform="translate(77.996 546.007)" fill="#006be0"/>
      <path id="tree-solid-3" data-name="tree-solid" d="M249.258,249.373l-52.637-59.621H216.8a14.971,14.971,0,0,0,13.691-8.6,14.525,14.525,0,0,0-2.161-15.846l-51.477-59.885H195.89a14.929,14.929,0,0,0,13.744-8.967,14.66,14.66,0,0,0-2.794-15.866L134.187,3.18a10.852,10.852,0,0,0-15.365,0l-72.66,77.4a14.672,14.672,0,0,0-2.794,15.866,14.938,14.938,0,0,0,13.751,8.967H76.154l-51.484,59.9a14.546,14.546,0,0,0-2.155,15.839,14.969,14.969,0,0,0,13.691,8.6H56.388L3.75,249.373A14.565,14.565,0,0,0,1.4,265.357a15.281,15.281,0,0,0,13.843,8.73h90.173V290.2L85.463,322.086a10.545,10.545,0,0,0,9.428,15.259h63.225a10.545,10.545,0,0,0,9.428-15.259L147.588,290.2V274.087h90.173a15.281,15.281,0,0,0,13.843-8.73A14.565,14.565,0,0,0,249.258,249.373Z" transform="translate(242.996 404.007)" fill="#006be0"/>
      <path id="tree-solid-4" data-name="tree-solid" d="M155.586,155.653l-32.856-37.215h12.6a9.345,9.345,0,0,0,8.546-5.371,9.066,9.066,0,0,0-1.349-9.891L110.393,65.8h11.881a9.318,9.318,0,0,0,8.579-5.6,9.151,9.151,0,0,0-1.744-9.9L83.76,1.982a6.774,6.774,0,0,0-9.591,0L28.816,50.3a9.158,9.158,0,0,0-1.744,9.9,9.324,9.324,0,0,0,8.583,5.6H47.536L15.4,103.185a9.08,9.08,0,0,0-1.345,9.887,9.344,9.344,0,0,0,8.546,5.367H35.2L2.343,155.653a9.091,9.091,0,0,0-1.464,9.977,9.538,9.538,0,0,0,8.641,5.449H65.8v10.055l-12.457,19.9a6.582,6.582,0,0,0,5.885,9.525H98.7a6.582,6.582,0,0,0,5.885-9.525l-12.457-19.9V171.08H148.41a9.538,9.538,0,0,0,8.641-5.449A9.091,9.091,0,0,0,155.586,155.653Z" transform="translate(170.075 500.007)" fill="#006be0"/>
    </g>
    <g id="Grupo_15" data-name="Grupo 15">
      <path id="parachute-box-solid" d="M99.977,34.179C98.2,19.414,84.665,8.32,69.06,3.184c7.109,7.7,12.187,19.648,12.187,34.316h5.488L63.962,62.792A6.091,6.091,0,0,0,62.5,62.5H53.122v-25H75C75,15,61.54,0,50,0S25,15,25,37.5H46.872v25H37.5a6.091,6.091,0,0,0-1.465.293L13.259,37.5h5.488c0-14.668,5.078-26.621,12.187-34.316C15.33,8.34,1.795,19.433.017,34.179A3.086,3.086,0,0,0,3.142,37.5h1.7l26.7,29.668a5.984,5.984,0,0,0-.312,1.582v25a6.243,6.243,0,0,0,6.25,6.25h25a6.243,6.243,0,0,0,6.25-6.25v-25a6.144,6.144,0,0,0-.312-1.582L95.134,37.5h1.7a3.08,3.08,0,0,0,3.145-3.32Z" transform="translate(60.003 330)" fill="#006be0"/>
      <path id="acorn-solid" d="M7.817,21.769,10,22.861l2.183-1.092a11.557,11.557,0,0,0,6.389-10.337H1.429A11.557,11.557,0,0,0,7.817,21.769Zm7.9-18.908H11.228A3.764,3.764,0,0,1,11.9,1.7a.715.715,0,0,0-.028-.976L11.37.217a.689.689,0,0,0-.534-.211.7.7,0,0,0-.5.237A5.911,5.911,0,0,0,9.019,2.861H4.286A4.286,4.286,0,0,0,0,7.147V8.576A1.429,1.429,0,0,0,1.429,10H18.571A1.429,1.429,0,0,0,20,8.576V7.147A4.286,4.286,0,0,0,15.714,2.861Z" transform="translate(100.428 400.497)" fill="#1a87ff"/>
    </g>
    <g id="Grupo_16" data-name="Grupo 16" transform="translate(230 30)">
      <path id="parachute-box-solid-2" data-name="parachute-box-solid" d="M39.989,13.672c-.711-5.906-6.125-10.344-12.367-12.4A20.116,20.116,0,0,1,32.5,15h2.2L25.583,25.117A2.436,2.436,0,0,0,25,25h-3.75V15H30C30,6,24.614,0,20,0S10,6,10,15h8.75V25H15a2.437,2.437,0,0,0-.586.117L5.3,15H7.5A20.116,20.116,0,0,1,12.372,1.273C6.13,3.336.716,7.773.005,13.672A1.234,1.234,0,0,0,1.255,15h.68l10.68,11.867a2.394,2.394,0,0,0-.125.633v10a2.5,2.5,0,0,0,2.5,2.5h10a2.5,2.5,0,0,0,2.5-2.5v-10a2.457,2.457,0,0,0-.125-.633L38.052,15h.68a1.232,1.232,0,0,0,1.258-1.328Z" transform="translate(60.003 330)" fill="#006be0"/>
      <path id="acorn-solid-2" data-name="acorn-solid" d="M3.258,9.075l.91.455.91-.455A4.817,4.817,0,0,0,7.74,4.767H.6A4.817,4.817,0,0,0,3.258,9.075ZM6.549,1.195H4.679A1.569,1.569,0,0,1,4.961.71.3.3,0,0,0,4.95.3L4.739.093A.287.287,0,0,0,4.516.005a.292.292,0,0,0-.21.1,2.464,2.464,0,0,0-.547,1.091H1.786A1.786,1.786,0,0,0,0,2.981v.6a.6.6,0,0,0,.6.6H7.74a.6.6,0,0,0,.6-.6v-.6A1.786,1.786,0,0,0,6.549,1.195Z" transform="translate(76.002 357.701)" fill="#1a87ff"/>
    </g>
    <g id="Grupo_18" data-name="Grupo 18">
      <circle id="Elipse_8" data-name="Elipse 8" cx="75" cy="75" r="75" transform="translate(-40 -40)" fill="#006be0"/>
      <circle id="Elipse_9" data-name="Elipse 9" cx="50" cy="50" r="50" transform="translate(90 -55)" fill="#006be0"/>
      <circle id="Elipse_10" data-name="Elipse 10" cx="25" cy="25" r="25" transform="translate(180 -33)" fill="#006be0"/>
    </g>
  </g>
</svg>
