<svg xmlns="http://www.w3.org/2000/svg" width="75.998" height="64" viewBox="0 0 75.998 64">
  <g id="Grupo_23" data-name="Grupo 23" transform="translate(-265 -114)">
    <path id="mobile-solid" d="M34,0H6A6,6,0,0,0,0,6V58a6,6,0,0,0,6,6H34a6,6,0,0,0,6-6V6A6,6,0,0,0,34,0ZM20,60a4,4,0,1,1,4-4A4,4,0,0,1,20,60Z" transform="translate(283.252 114)" fill="#fff"/>
    <path id="signal-stream" d="M8.067,65.152l-.945-.96a.667.667,0,0,0-.962.008,23.319,23.319,0,0,0,0,31.581.667.667,0,0,0,.962.007l.945-.959a.677.677,0,0,0,.006-.937,20.577,20.577,0,0,1,0-27.8A.677.677,0,0,0,8.067,65.152Zm6.994,5.75-.942-.957a.667.667,0,0,0-.97.012,15.091,15.091,0,0,0,0,20.063.667.667,0,0,0,.97.012l.942-.958a.684.684,0,0,0,.012-.935,12.347,12.347,0,0,1,0-16.3.684.684,0,0,0-.012-.928Zm26.778-6.7a.667.667,0,0,0-.963-.008l-.945.96a.677.677,0,0,0-.006.937,20.577,20.577,0,0,1,0,27.8.677.677,0,0,0,.006.937l.945.959a.667.667,0,0,0,.963-.007,23.321,23.321,0,0,0,0-31.581ZM24,74.658a5.333,5.333,0,1,0,5.333,5.333A5.333,5.333,0,0,0,24,74.658Zm0,8a2.667,2.667,0,1,1,2.667-2.667A2.667,2.667,0,0,1,24,82.657Zm9.88-12.71-.942.961a.684.684,0,0,0-.012.935,12.347,12.347,0,0,1,0,16.3.684.684,0,0,0,.012.935l.942.957a.667.667,0,0,0,.97-.013,15.091,15.091,0,0,0,0-20.063.667.667,0,0,0-.97-.016Z" transform="translate(293 66.009)" fill="#fff"/>
    <path id="signal-stream-2" data-name="signal-stream" d="M8.067,65.152l-.945-.96a.667.667,0,0,0-.962.008,23.319,23.319,0,0,0,0,31.581.667.667,0,0,0,.962.007l.945-.959a.677.677,0,0,0,.006-.937,20.577,20.577,0,0,1,0-27.8A.677.677,0,0,0,8.067,65.152Zm6.994,5.75-.942-.957a.667.667,0,0,0-.97.012,15.091,15.091,0,0,0,0,20.063.667.667,0,0,0,.97.012l.942-.958a.684.684,0,0,0,.012-.935,12.347,12.347,0,0,1,0-16.3.684.684,0,0,0-.012-.928Zm26.778-6.7a.667.667,0,0,0-.963-.008l-.945.96a.677.677,0,0,0-.006.937,20.577,20.577,0,0,1,0,27.8.677.677,0,0,0,.006.937l.945.959a.667.667,0,0,0,.963-.007,23.321,23.321,0,0,0,0-31.581ZM24,74.658a5.333,5.333,0,1,0,5.333,5.333A5.333,5.333,0,0,0,24,74.658Zm0,8a2.667,2.667,0,1,1,2.667-2.667A2.667,2.667,0,0,1,24,82.657Zm9.88-12.71-.942.961a.684.684,0,0,0-.012.935,12.347,12.347,0,0,1,0,16.3.684.684,0,0,0,.012.935l.942.957a.667.667,0,0,0,.97-.013,15.091,15.091,0,0,0,0-20.063.667.667,0,0,0-.97-.016Z" transform="translate(265 66.009)" fill="#fff"/>
  </g>
</svg>
